<svg xmlns="http://www.w3.org/2000/svg" width="16" height="16" viewBox="0 0 16 16"><defs><style>.a{fill:none;}</style></defs><g transform="translate(-381.486 -635.253)"><rect class="a" width="16" height="16" transform="translate(381.486 635.253)"/><path class="b" d="M1,16a.985.985,0,0,1-1-.97V1.94a.985.985,0,0,1,1-.97H2a.493.493,0,0,1,.5.485V2.909a.492.492,0,0,0,.5.485h8a.493.493,0,0,0,.5-.485V1.454A.493.493,0,0,1,12,.969h1a.986.986,0,0,1,1,.97V15.03A.986.986,0,0,1,13,16Zm1.5-5.818a.492.492,0,0,0,.5.485H8A.485.485,0,1,0,8,9.7H3A.493.493,0,0,0,2.5,10.182Zm0-1.94a.493.493,0,0,0,.5.485H8a.485.485,0,1,0,0-.97H3A.494.494,0,0,0,2.5,8.242ZM2.5,6.3a.493.493,0,0,0,.5.485h8a.485.485,0,1,0,0-.969H3A.492.492,0,0,0,2.5,6.3ZM4.29,2.425a.79.79,0,0,1-.79-.79V.79A.79.79,0,0,1,4.29,0H9.711a.79.79,0,0,1,.79.79v.844a.79.79,0,0,1-.79.79Z" transform="translate(382.486 635.253)"/></g></svg>