<svg xmlns="http://www.w3.org/2000/svg" width="16" height="16" viewBox="0 0 16 16"><defs><style>.a{fill:none;}</style></defs><g transform="translate(-381.486 -566.253)"><rect class="a" width="16" height="16" transform="translate(381.486 566.253)"/><path class="b" d="M65.278.569a1.533,1.533,0,0,0-.791.224L60.731,4.461a.792.792,0,0,1-.4.112H58.556a1.591,1.591,0,0,0-1.582,1.6v4.8a1.609,1.609,0,0,0,.464,1.131,1.572,1.572,0,0,0,1.118.469H60.32a.786.786,0,0,1,.4.112l3.772,3.664a1.536,1.536,0,0,0,.791.224,1.591,1.591,0,0,0,1.582-1.6V2.169a1.592,1.592,0,0,0-1.582-1.6Zm5.338,7.2H68.639a.6.6,0,0,0,0,1.2h1.977a.6.6,0,0,0,0-1.2Zm-.134-4.5a.594.594,0,0,0-.292.08l-1.716,1a.6.6,0,0,0-.277.677.592.592,0,0,0,.87.363l1.716-1a.6.6,0,0,0,.276-.677.594.594,0,0,0-.577-.443Zm-1.708,8a.594.594,0,0,0-.577.443.6.6,0,0,0,.277.677l1.716,1a.591.591,0,0,0,.869-.363.6.6,0,0,0-.276-.677l-1.716-.98a.6.6,0,0,0-.293-.08v-.02Z" transform="translate(325.512 565.684)"/></g></svg>