<svg xmlns="http://www.w3.org/2000/svg" width="16" height="16" viewBox="0 0 16 16"><defs><style>.a{fill:none;}</style></defs><g transform="translate(-381.486 -500.253)"><rect class="a" width="16" height="16" transform="translate(381.486 500.253)"/><path class="b" d="M61.664,164.756h-12.8a1.637,1.637,0,0,0-1.6,1.656v7.857a1.637,1.637,0,0,0,1.6,1.656h4.5l1.139,1.51a.514.514,0,0,0,.138.143.78.78,0,0,0,1.123-.143l1.139-1.51h4.757a1.63,1.63,0,0,0,1.6-1.656v-7.857a1.631,1.631,0,0,0-1.6-1.656Zm-10,6.621a1.036,1.036,0,1,1,1-1.034A1.008,1.008,0,0,1,51.666,171.377Zm3.6,0a1.036,1.036,0,1,1,1-1.034A1.01,1.01,0,0,1,55.263,171.377Zm3.6,0a1.036,1.036,0,1,1,1-1.034A1.007,1.007,0,0,1,58.864,171.377Z" transform="translate(334.223 337.497)"/></g></svg>