<svg xmlns="http://www.w3.org/2000/svg" width="14" height="17.302" viewBox="0 0 14 17.302"><defs></defs><path class="a" d="M179.714,87.652l-6.255-2.319-6.307,2.319a.878.878,0,0,0-.753.865v8.331c0,.519,1.159,1.964,2.2,2.95a23.475,23.475,0,0,0,4.741,2.838h.112a25.009,25.009,0,0,0,4.741-2.838c1.038-.986,2.2-2.431,2.2-2.95V88.517a.781.781,0,0,0-.675-.865Zm-3.824,8.08a.694.694,0,0,1-.692.692h-1.1V98.18a.692.692,0,1,1-1.384,0V94a2.249,2.249,0,1,1,1.384,0V95.04h1.1A.694.694,0,0,1,175.89,95.732Z" transform="translate(-166.4 -85.333)"/></svg>