<svg xmlns="http://www.w3.org/2000/svg" width="16" height="16.329" viewBox="0 0 16 16.329"><defs></defs><path class="a" d="M49.463,46.609v1.72h1.722L56.166,43.3l-1.72-1.722-4.983,5.035ZM53.085,32H44a2.393,2.393,0,0,0-2.392,2.392V45.937A2.394,2.394,0,0,0,44,48.329h3.3V46.186l8.172-8.36V34.392A2.394,2.394,0,0,0,53.085,32Zm-4.26,10.451H45.857a.985.985,0,0,1,0-1.969h2.968a.985.985,0,1,1,0,1.969Zm2-3.959H45.857a.985.985,0,0,1,0-1.969H50.82a.985.985,0,0,1,0,1.969Zm5.623,1.818a.435.435,0,0,0-.319-.134.455.455,0,0,0-.319.134l-.817.817,1.72,1.72.767-.865a.438.438,0,0,0,.134-.319.455.455,0,0,0-.134-.319L56.443,40.31Zm0,0" transform="translate(-41.609 -32)"/></svg>