<svg xmlns="http://www.w3.org/2000/svg" width="16" height="16" viewBox="0 0 16 16"><defs><style>.a{fill:none;}</style></defs><g transform="translate(-381.486 -704.253)"><rect class="a" width="16" height="16" transform="translate(381.486 704.253)"/><path class="b" d="M.411,16A.449.449,0,0,1,0,15.543V10.972a.448.448,0,0,1,.437-.457H3.5a.448.448,0,0,1,.437.457v.416a.936.936,0,0,0,.914.955H9.143a.944.944,0,0,0,.919-.96v-.411a.448.448,0,0,1,.438-.457h3.084a.449.449,0,0,1,.416.457v4.571a.449.449,0,0,1-.411.457ZM5.25,11.429a.448.448,0,0,1-.438-.457v-.914A.45.45,0,0,0,4.4,9.6H3.937A.447.447,0,0,1,3.5,9.143V.457A.448.448,0,0,1,3.937,0h8.75a.448.448,0,0,1,.438.457V9.143a.448.448,0,0,1-.438.457H9.6a.45.45,0,0,0-.411.457v.914a.447.447,0,0,1-.437.457Zm.438-5.486a.448.448,0,0,0,.437.457H10.5a.458.458,0,0,0,0-.914H6.125A.447.447,0,0,0,5.687,5.943Zm0-2.286a.448.448,0,0,0,.437.457H10.5a.458.458,0,0,0,0-.914H6.125A.447.447,0,0,0,5.687,3.657ZM1.312,9.6a.447.447,0,0,1-.437-.457V3.657A.447.447,0,0,1,1.312,3.2H2.625V9.143a.447.447,0,0,1-.437.457Z" transform="translate(382.486 704.253)"/></g></svg>