<?xml version="1.0" standalone="no"?><!DOCTYPE svg PUBLIC "-//W3C//DTD SVG 1.1//EN" "http://www.w3.org/Graphics/SVG/1.1/DTD/svg11.dtd"><svg t="1630923667054" class="icon" viewBox="0 0 1024 1024" version="1.1" xmlns="http://www.w3.org/2000/svg" p-id="13505" xmlns:xlink="http://www.w3.org/1999/xlink" width="16" height="16"><defs><style type="text/css"></style></defs><path d="M530.517333 46.784l298.666667 66.346667A85.333333 85.333333 0 0 1 896 196.48V533.333333a452.096 452.096 0 0 1-354.026667 441.344L512 981.333333l-29.973333-6.656A452.096 452.096 0 0 1 128 533.333333V196.458667a85.333333 85.333333 0 0 1 66.816-83.306667l298.666667-66.368a85.333333 85.333333 0 0 1 37.034666 0zM512 234.666667a170.666667 170.666667 0 0 0-47.872 334.506666l5.226667 1.450667L469.333333 768l0.106667 3.2a42.666667 42.666667 0 0 0 85.12 0L554.666667 768v-42.666667h42.666666l3.2-0.106666a42.666667 42.666667 0 0 0 0-85.12L597.333333 640h-42.666666v-69.376A170.666667 170.666667 0 0 0 512 234.666667z m0 85.333333a85.333333 85.333333 0 1 1 0 170.666667 85.333333 85.333333 0 0 1 0-170.666667z" p-id="13506"></path></svg>