<?xml version="1.0" standalone="no"?><!DOCTYPE svg PUBLIC "-//W3C//DTD SVG 1.1//EN" "http://www.w3.org/Graphics/SVG/1.1/DTD/svg11.dtd"><svg t="1630923692648" class="icon" viewBox="0 0 1024 1024" version="1.1" xmlns="http://www.w3.org/2000/svg" p-id="14516" xmlns:xlink="http://www.w3.org/1999/xlink" width="16" height="16"><defs><style type="text/css"></style></defs><path d="M0 0m36.571429 0l182.857142 0q36.571429 0 36.571429 36.571429l0 182.857142q0 36.571429-36.571429 36.571429l-182.857142 0q-36.571429 0-36.571429-36.571429l0-182.857142q0-36.571429 36.571429-36.571429Z" p-id="14517"></path><path d="M0 438.857143m36.571429 0l182.857142 0q36.571429 0 36.571429 36.571428l0 512q0 36.571429-36.571429 36.571429l-182.857142 0q-36.571429 0-36.571429-36.571429l0-512q0-36.571429 36.571429-36.571428Z" p-id="14518"></path><path d="M768 438.857143m36.571429 0l182.857142 0q36.571429 0 36.571429 36.571428l0 512q0 36.571429-36.571429 36.571429l-182.857142 0q-36.571429 0-36.571429-36.571429l0-512q0-36.571429 36.571429-36.571428Z" p-id="14519"></path><path d="M384 438.857143m36.571429 0l182.857142 0q36.571429 0 36.571429 36.571428l0 512q0 36.571429-36.571429 36.571429l-182.857142 0q-36.571429 0-36.571429-36.571429l0-512q0-36.571429 36.571429-36.571428Z" p-id="14520"></path><path d="M384 0m36.571429 0l566.857142 0q36.571429 0 36.571429 36.571429l0 182.857142q0 36.571429-36.571429 36.571429l-566.857142 0q-36.571429 0-36.571429-36.571429l0-182.857142q0-36.571429 36.571429-36.571429Z" p-id="14521"></path></svg>